<?xml version="1.0" standalone="no"?>
<!DOCTYPE svg PUBLIC "-//W3C//DTD SVG 20010904//EN"
 "http://www.w3.org/TR/2001/REC-SVG-20010904/DTD/svg10.dtd">
<svg version="1.0" xmlns="http://www.w3.org/2000/svg"
 width="264.000000pt" height="264.000000pt" viewBox="0 0 264.000000 264.000000"
 preserveAspectRatio="xMidYMid meet">
<metadata>
Created by potrace 1.11, written by Peter Selinger 2001-2013
</metadata>
<g transform="translate(0.000000,264.000000) scale(0.100000,-0.100000)"
fill="#000000" stroke="none">
<path d="M418 2168 c21 -29 99 -136 173 -238 75 -102 196 -268 270 -370 75
-102 143 -196 152 -210 15 -25 14 -27 -99 -185 -62 -88 -120 -169 -128 -180
-89 -122 -396 -557 -396 -560 0 -3 126 -5 280 -5 l280 0 181 242 c100 134 185
243 191 243 5 0 89 -108 187 -240 l178 -240 286 -3 287 -2 -236 327 c-129 181
-274 382 -321 448 -47 66 -86 125 -86 130 0 9 166 244 518 730 56 77 105 146
109 153 6 9 -53 12 -282 12 l-289 0 -43 -62 c-24 -35 -60 -85 -80 -113 -20
-27 -81 -112 -134 -188 l-98 -138 -113 163 c-62 90 -118 168 -123 174 -5 5
-15 20 -21 32 -7 12 -30 47 -53 77 l-41 55 -294 0 -294 0 39 -52z"/>
</g>
</svg>
